<svg width="168" height="80" viewBox="0 0 168 80" fill="none" xmlns="http://www.w3.org/2000/svg">
<circle cx="84" cy="-4" r="84" fill="#25AE7A"/>
<path fill-rule="evenodd" clip-rule="evenodd" d="M127.856 20.7641C126.904 20.7641 125.667 21.1823 125.667 22.9517V24.689H129.188V28.3566H125.667V40.5174H121.418V28.3566H118.817V24.689H121.418V22.8874C121.418 19.3164 123.638 17 127.095 17C127.983 17 128.839 17.1609 129.188 17.3217V20.9249C128.966 20.8606 128.553 20.7641 127.856 20.7641ZM91.7344 35.3056L88.119 36.1099C88.3093 37.9115 89.9267 41 94.6204 41C98.7115 41 100.678 38.3619 100.678 35.7882C100.678 33.4718 99.1238 31.5737 96.0475 30.9303L93.8276 30.4477C92.9713 30.2869 92.4004 29.8043 92.4004 29.0322C92.4004 28.1314 93.2884 27.4558 94.3984 27.4558C96.1744 27.4558 96.8404 28.6461 96.9672 29.5791L100.488 28.7748C100.297 27.0697 98.8067 24.2064 94.3667 24.2064C91.005 24.2064 88.5313 26.555 88.5313 29.3861C88.5313 31.6059 89.895 33.4397 92.9078 34.1153L94.9693 34.5979C96.1744 34.8552 96.6501 35.4343 96.6501 36.1421C96.6501 36.9785 95.9841 37.7185 94.5887 37.7185C92.7493 37.7185 91.8296 36.5603 91.7344 35.3056ZM114.029 32.6032C114.029 35.5952 112.126 37.1072 110.065 37.1072C108.003 37.1072 106.1 35.563 106.1 32.6032C106.1 29.6113 108.003 28.0992 110.065 28.0992C112.126 28.0992 114.029 29.6113 114.029 32.6032ZM118.247 32.6032C118.247 27.7131 114.727 24.2064 110.065 24.2064C105.403 24.2064 101.882 27.7131 101.882 32.6032C101.882 37.4611 105.403 41 110.065 41C114.727 41 118.247 37.4611 118.247 32.6032ZM136.86 24.689V19.9598H133.055V22.1796C133.055 23.5952 132.293 24.689 130.644 24.689H129.852V28.4853H132.674V35.8525C132.674 38.9088 134.577 40.7426 137.621 40.7426C138.858 40.7426 139.619 40.5174 140 40.3566V36.8177C139.778 36.882 139.207 36.9464 138.7 36.9464C137.495 36.9464 136.86 36.496 136.86 35.1126V28.4853H140V24.689H136.86ZM43.3705 40.5121C43.3071 40.1904 43.2436 39.4504 43.2436 38.807C42.3874 40.2869 40.5797 40.9303 38.9305 40.9303C35.1566 40.9303 33 38.1314 33 34.689V24.6837H37.218V33.8204C37.218 35.5898 38.106 37.0054 40.0722 37.0054C41.9434 37.0054 43.0216 35.7185 43.0216 33.8847V24.6837H47.2396V37.6488C47.2396 38.8713 47.3348 39.9652 47.3982 40.5121H43.3705ZM48.4428 40.5121H61.3504V36.7802H53.6122L61.2235 28.2547V24.6837H48.633V28.3834H55.8321L48.4428 36.748V40.5121ZM72.3254 34.4149C72.1348 35.9618 71.0928 37.0054 69.4077 37.0054C67.4415 37.0054 66.5535 35.5898 66.5535 33.8204V24.6837H62.3355V34.689C62.3355 38.1314 64.4921 40.9303 68.266 40.9303C69.6988 40.9303 71.2514 40.4446 72.1956 39.3466C72.7562 38.0552 73.5774 36.2197 74.4045 34.4972C74.8902 33.4859 75.3783 32.5128 75.8171 31.7115C76.146 31.111 76.4492 30.6031 76.7045 30.2478C77.0688 29.0046 78.0368 28.1365 79.4611 28.1365C81.4908 28.1365 82.3471 29.5199 82.3471 31.2894V40.5226H86.565V30.5494C86.565 27.0749 84.7891 24.276 80.9199 24.276C79.328 24.276 77.5654 24.9397 76.5751 26.4038V24.6837H72.3571V24.6942H72.3254V34.4149ZM76.6054 30.6765C76.5937 30.7445 76.5836 30.8135 76.5751 30.8832V37.6488C76.5751 38.8713 76.6703 39.9652 76.7337 40.5121H76.5434V40.5226H72.3254V39.4438C72.8857 38.1522 73.7133 36.3012 74.5468 34.5656C75.0319 33.5555 75.5186 32.5852 75.9555 31.7873C76.1901 31.359 76.4093 30.9823 76.6054 30.6765Z" fill="white"/>
</svg>
