<svg width="20" height="19" viewBox="0 0 20 19" fill="none" xmlns="http://www.w3.org/2000/svg">
<path id="Star 4" d="M7.52539 2.11076C8.71701 0.372041 11.283 0.372042 12.4746 2.11076L13.629 3.7951C14.0191 4.36429 14.5934 4.78161 15.2553 4.97672L17.2139 5.55409C19.2358 6.15009 20.0287 8.59049 18.7433 10.2611L17.4981 11.8794C17.0774 12.4263 16.858 13.1015 16.8769 13.7913L16.9331 15.8325C16.991 17.9396 14.9151 19.4478 12.9291 18.7416L11.0051 18.0574C10.355 17.8262 9.64501 17.8262 8.99486 18.0574L7.07093 18.7416C5.0849 19.4478 3.00897 17.9396 3.06692 15.8325L3.12306 13.7913C3.14203 13.1015 2.92264 12.4263 2.50185 11.8794L1.25666 10.2611C-0.0287277 8.59049 0.764206 6.15009 2.78606 5.55409L4.74468 4.97672C5.40656 4.78161 5.98094 4.36429 6.37103 3.7951L7.52539 2.11076Z" fill="#DFFCEF"/>
</svg>
